<svg version="1.2" xmlns="http://www.w3.org/2000/svg" viewBox="0 0 512 512" width="512" height="512"><style>.a{fill:#a0d2ff}.b{fill:#f7f7f7}</style><path class="a" d="m36 1.8c-3 1-7.8 3.1-10.5 4.7-2.8 1.6-7 4.7-9.4 6.9-2.4 2.3-6.2 6.8-8.3 10.1-2.1 3.3-4.8 8.9-5.9 12.5-1.9 6.4-1.9 10.3-1.9 220 0 210.1 0 213.6 1.9 220 1.1 3.6 3.4 8.8 5.2 11.5 1.7 2.8 4.7 6.7 6.7 8.9 2.1 2.1 6.4 5.6 9.7 7.8 3.3 2.1 8.9 4.8 12.5 5.9 6.4 1.9 10.3 1.9 220 1.9 210.1 0 213.6 0 220-1.9 3.6-1.1 8.8-3.4 11.5-5.2 2.8-1.7 6.7-4.7 8.9-6.7 2.1-2.1 5.6-6.4 7.8-9.7 2.1-3.3 4.8-8.9 5.9-12.5 1.9-6.4 1.9-10.3 1.9-220 0-209.7 0-213.6-1.9-220-1.1-3.6-3.8-9.2-5.9-12.5-2.2-3.3-5.7-7.6-7.8-9.7-2.2-2-6.1-5-8.9-6.7-2.7-1.8-7.9-4.1-11.5-5.2-6.4-1.9-9.8-1.9-220.5-1.9-200.2 0.1-214.4 0.2-219.5 1.8z"/><path class="b" d="m138.2 105l0.3 4.5c13.2 1.1 18.8 2.1 21 2.9 2.2 0.8 5.5 3.1 7.3 5 1.7 2 3.8 5.3 4.4 7.3 1 2.9 1.3 33 1.6 127.3 0.2 88.5 0 125.3-0.8 130-0.7 3.6-2 8.1-3 10-0.9 1.9-2.9 4.3-4.4 5.3-1.4 0.9-5.4 2.4-8.8 3.2-3.5 0.8-8.9 1.7-12 2l-5.8 0.5v8.5h237.2c-0.9-6.2-1.7-15.2-2.3-24-0.6-8.8-0.9-27.7-0.7-42l0.3-26h-18c-1.1 7-2.4 15.1-3.6 22.5-1.1 7.4-3.2 16.9-4.5 21-1.3 4.1-3.6 9.9-5.2 12.7-1.5 2.9-4.9 7.6-7.7 10.4-3.1 3.3-7.6 6.4-12 8.6-3.8 1.8-10.8 4-15.5 4.9-6.9 1.3-14.3 1.5-38.5 1.2-23-0.2-30.6-0.6-32.5-1.7-1.4-0.7-3.8-2.5-5.3-4-1.5-1.4-3.6-4.8-4.5-7.6-1.5-4.6-1.7-15.5-2-126-0.2-82.9 0-123.5 0.8-129 0.6-4.7 2-9.6 3.3-11.9 1.2-2.2 3.3-4.7 4.7-5.7 1.4-1 5.2-2.5 8.5-3.4 3.3-0.8 8.3-1.5 11-1.5 2.8 0 5.6-0.4 6.3-0.8 0.8-0.4 1.2-2.2 1-4.6l-0.3-3.8-120.6-0.3z"/></svg>